# xmcd
#
# Track frame offsets:
#	182
#	21830
#	41247
#	63905
#	85667
#	101207
#	121360
#	140652
#	158832
#	179905
#
# Disc length: 2689 seconds
#
# Revision: 5
# Processed by: cddbd v1.5.2PL0 Copyright (c) Steve Scherf et al.
# Submitted via: EasyCDDAExtractor 15.3.0.1
#
DISCID=8e0a7f0a
DTITLE=Luis Miguel - Aries
DYEAR=1993
DGENRE=Latin
TTITLE0=Suave
TTITLE1=Me Niego A Estar Solo
TTITLE2=Luz Verde
TTITLE3=Hasta El Fin
TTITLE4=Ayer
TTITLE5=Que Nivel De Mujer
TTITLE6=Pensar En Ti
TTITLE7=Dame Tu Amor
TTITLE8=Hasta Que Me Olvides
TTITLE9=Tu Y Yo
EXTD=
EXTT0=
EXTT1=
EXTT2=
EXTT3=
EXTT4=
EXTT5=
EXTT6=
EXTT7=
EXTT8=
EXTT9=
PLAYORDER=
